# xmcd CD database file
#
# Track frame offsets:
#	150
#	20700
#	42755
#
# Disc length: 759 seconds
#
# Revision: 0
# Processed by: cddbd v1.5.1PL0 Copyright (c) Steve Scherf et al.
# Submitted via: CDex 1.51
#
DISCID=1d02f503
DTITLE=Amanda Marshall - Let It Rain
DYEAR=1996
DGENRE=Rock
TTITLE0=Let It Rain
TTITLE1=Fall From Grace
TTITLE2=This Could Take All Night
EXTD=YEAR: 1996
EXTT0=
EXTT1=
EXTT2=
PLAYORDER=
